<svg width="335" height="377" viewBox="0 0 335 377" fill="none" xmlns="http://www.w3.org/2000/svg">
<path d="M134.741 376.051C102.008 376.051 70.2335 370.359 42.561 352.884C22.1329 339.983 11.9055 322.88 16.4599 309.288C18.3243 303.756 22.4525 299.474 28.2587 296.734C22.2394 296.601 15.1815 295.032 6.97826 290.962C0.452979 287.717 0.186641 279.791 0.0534721 275.535C0.0268383 275.056 0.0268383 274.63 0.000204502 274.231C-0.399303 267.023 7.19133 263.565 10.8402 261.89L11.3462 261.65C15.5277 259.709 17.4453 260.959 18.1911 261.863C19.5494 263.486 19.3896 266.305 17.8715 269.683C19.7891 270.508 21.7334 271.784 23.6777 273.008C29.617 276.812 35.7428 280.775 41.469 274.737C71.1125 243.537 74.6281 236.781 78.0372 218.96C79.7951 209.783 80.674 201.803 81.5263 194.09C82.5384 184.967 83.4972 176.349 85.7877 167.039C90.5818 147.436 101.901 145.521 112.821 143.659C124.939 141.584 133.808 136.371 138.523 128.551C143.29 120.625 143.663 109.985 139.615 97.7763C139.481 97.4305 139.322 97.1114 139.188 96.7656C138.416 95.2495 137.111 94.3983 135.46 93.3078C133.675 92.1374 131.651 90.8341 129.707 88.3072C124.753 81.9502 125.632 75.0079 127.896 71.0181C129.307 68.4913 128.908 66.5496 128.109 62.6928C127.922 61.7618 127.709 60.7511 127.496 59.6073C124.087 41.2809 132.743 29.6573 152.505 25.9601C153.677 25.7473 154.849 25.4813 156.048 25.1887C150.668 23.1938 145.767 20.1084 145.048 13.8311C144.702 10.7191 145.66 7.63367 147.738 5.15999C150.215 2.12775 154.05 0.319049 158.525 0.053063C163.878 -0.292719 167.207 1.64898 169.045 3.35129C171.389 5.50578 172.747 8.59121 172.8 11.8628C172.88 17.6347 169.365 22.1299 162.493 25.1355C162.52 25.1355 162.546 25.1621 162.573 25.1621C164.597 25.7473 166.488 26.3059 168.113 26.9443C187.342 34.6312 194.267 51.6543 188.647 77.5082C187.316 83.5727 185.771 89.052 183.986 93.8131C179.672 109.772 180.098 121.05 185.318 128.285C189.66 134.323 197.277 137.541 208.596 138.206C236.242 139.776 240.663 162.118 243.593 176.881L243.806 177.971C246.07 189.329 247.881 199.064 249.452 207.655C255.685 241.462 258.028 254.096 269.268 259.336C274.728 261.89 279.069 264.151 282.904 266.145C292.945 271.385 297.979 274.019 304.957 272.104C314.093 269.603 317.635 267.715 320.724 261.491C322.109 258.698 324.373 257.395 326.477 258.166C327.729 258.618 328.795 259.842 329.327 261.783C330.046 261.757 330.739 261.863 331.405 262.156C335.906 264.151 336.172 272.662 332.124 284.924C328.342 296.361 319.899 299.075 303.04 294.287C301.601 293.888 300.243 293.489 298.911 293.116C302.374 295.67 305.09 298.888 306.822 302.612C312.148 314.076 308.127 330.301 287.059 340.728C253.261 357.458 219.489 361.528 183.747 353.203C153.038 346.048 126.378 331.099 102.86 317.933C82.4851 306.522 64.8801 296.654 50.4446 295.457C42.0283 294.766 34.5709 295.83 28.8712 298.596C23.5978 301.149 19.9489 305.059 18.3243 309.927C14.0629 322.614 23.9973 338.813 43.5997 351.208C97.9327 385.52 168.672 373.737 231.075 363.363C264.66 357.778 296.355 352.511 322.482 354.772L322.296 356.767C296.434 354.506 264.82 359.773 231.395 365.332C200.26 370.518 167.021 376.051 134.741 376.051ZM45.7038 293.223C47.3018 293.223 48.9531 293.303 50.6577 293.436C65.5194 294.659 83.2841 304.634 103.872 316.151C127.283 329.264 153.81 344.106 184.253 351.208C219.516 359.427 252.862 355.41 286.207 338.893C306.049 329.078 309.938 313.996 305.037 303.41C296.94 286.041 272.331 285.775 252.196 294.5C190.245 321.364 169.418 322.854 136.685 319.848C121.077 318.412 111.702 314.688 108.027 308.411C104.005 301.548 107.281 292.85 110.983 284.552C123.554 256.304 116.203 228.429 110.317 206.033C110.104 205.208 109.891 204.41 109.678 203.612C108.187 208.772 106.429 214.331 104.644 220.024C101.715 229.28 98.7051 238.829 96.7342 247.021C91.9135 267.076 83.2308 271.891 64.2409 282.397C60.2991 284.578 55.798 287.079 50.8441 289.978C49.2461 290.909 47.2486 292.079 44.8515 293.17C45.1179 293.223 45.4108 293.223 45.7038 293.223ZM110.744 199.782C111.223 201.644 111.729 203.559 112.235 205.554C117.908 227.072 125.658 256.517 112.794 285.403C109.305 293.249 106.189 301.389 109.731 307.427C113.061 313.092 121.93 316.497 136.845 317.88C169.924 320.912 189.553 319.502 251.37 292.691C260.026 288.94 268.416 286.919 276.113 286.733C269.028 284.897 262.45 283.435 253.128 281.732L252.755 281.679C246.283 280.509 237.414 278.886 234.085 264.683C233.046 260.241 231.954 256.091 230.809 251.702C227.693 239.786 224.23 226.514 221.034 204.144C212.778 221.912 201.938 251.623 212.431 297.133L210.461 297.585C199.221 248.936 212.085 218.135 220.501 200.5C220.155 197.973 219.809 195.313 219.489 192.574C218.717 186.084 219.756 181.482 222.286 180.232C223.405 179.7 224.63 179.939 225.589 180.87C227.799 183.078 228.438 188.69 224.789 196.271L223.884 198.159C223.458 199.011 223.032 199.915 222.579 200.846C225.855 224.971 229.477 238.829 232.726 251.224C233.872 255.639 234.964 259.788 236.002 264.257C239.012 277.184 246.816 278.594 253.075 279.711L253.447 279.764C270.147 282.796 278.11 285.084 295.609 290.084C298.059 290.776 300.696 291.547 303.572 292.372C319.313 296.84 326.797 294.579 330.179 284.312C334.547 271.146 333.109 265.161 330.579 264.018C330.286 263.885 329.993 263.831 329.647 263.805C329.753 265.321 329.594 267.156 329.061 269.231C328.262 272.37 326.611 274.471 324.64 274.843C323.548 275.056 322.509 274.657 321.87 273.753C320.751 272.21 321.044 269.71 322.642 266.864C323.921 264.603 325.625 262.98 327.356 262.236C326.983 260.985 326.344 260.267 325.758 260.054C324.693 259.655 323.414 260.586 322.509 262.395C319.1 269.258 315.078 271.412 305.463 274.045C297.713 276.173 292.093 273.247 281.946 267.928C278.137 265.933 273.796 263.672 268.389 261.145C256.217 255.453 253.82 242.526 247.428 207.974C245.83 199.383 244.046 189.675 241.782 178.317L241.569 177.226C238.586 162.198 234.511 141.637 208.436 140.148C196.478 139.456 188.354 135.945 183.64 129.402C179.192 123.231 177.941 114.48 179.858 102.83C175.544 110.783 170.377 115.677 164.624 117.06C158.418 118.576 151.999 115.757 146.539 109.161C145.66 108.097 144.648 106.767 143.583 105.171C145.314 114.587 144.169 122.885 140.201 129.508C135.193 137.834 125.845 143.393 113.114 145.547C102.354 147.383 92.1798 149.112 87.6787 167.438C85.4148 176.615 84.4826 185.179 83.4705 194.223C82.6183 201.99 81.7127 209.996 79.9549 219.252C76.2794 238.563 71.4321 246.01 42.8806 276.067C36.0091 283.302 28.5516 278.487 22.559 274.63C20.4017 273.247 18.5373 272.104 16.9393 271.412C16.5398 272.13 16.087 272.848 15.581 273.593C13.5834 276.492 11.5326 276.546 10.7336 276.413C9.61501 276.253 8.70946 275.508 8.36322 274.444C7.93708 273.141 8.44312 271.651 9.69491 270.428C11.5859 268.593 13.7166 268.353 15.9539 268.938C17.2855 266.092 17.3921 263.964 16.6463 263.087C15.9805 262.289 14.3292 262.395 12.1719 263.406L11.6392 263.645C8.15015 265.241 1.6515 268.22 1.97111 274.045C1.99774 274.444 1.99774 274.896 2.02437 275.402C2.15754 279.498 2.37061 286.36 7.83054 289.073C29.7502 300.006 43.2801 292.053 49.7521 288.222C54.7327 285.296 59.2338 282.796 63.2022 280.615C81.6594 270.375 90.0757 265.72 94.71 246.516C96.7075 238.244 99.7172 228.641 102.647 219.385C104.831 212.443 106.962 205.687 108.613 199.702C107.015 193.452 105.816 187.919 105.55 183.211C105.337 179.381 106.216 176.561 107.92 175.444C108.773 174.886 109.785 174.859 110.69 175.311C112.475 176.242 113.567 178.902 113.673 182.626C113.886 186.749 112.661 192.76 110.744 199.782ZM13.983 270.747C12.9176 270.747 11.9854 271.119 11.1331 271.944C10.4407 272.609 10.1477 273.354 10.3075 273.912C10.414 274.231 10.6804 274.444 11.0532 274.497C11.7457 274.604 12.8643 274.125 13.9563 272.529C14.3558 271.944 14.7021 271.412 15.0217 270.853C14.6754 270.774 14.3292 270.747 13.983 270.747ZM327.703 264.363C326.531 265.028 325.332 266.252 324.427 267.874C323.042 270.321 323.068 271.944 323.521 272.582C323.707 272.848 323.947 272.928 324.293 272.875C325.226 272.689 326.477 271.359 327.143 268.752C327.569 267.023 327.729 265.56 327.703 264.363ZM223.511 181.934C223.351 181.934 223.245 181.988 223.191 182.014C222.233 182.493 220.661 185.233 221.514 192.308C221.727 193.983 221.913 195.606 222.126 197.175L223.005 195.367C226.388 188.318 225.535 183.61 224.204 182.28C223.937 181.988 223.698 181.934 223.511 181.934ZM109.465 177.067C109.332 177.067 109.199 177.12 109.066 177.2C108.213 177.758 107.414 179.806 107.601 183.158C107.787 186.802 108.613 191.004 109.705 195.686C111.01 190.393 111.809 185.924 111.702 182.759C111.596 179.54 110.664 177.625 109.785 177.173C109.678 177.093 109.572 177.067 109.465 177.067ZM141.479 97.0316C143.53 101.873 146.193 105.596 148.111 107.91C153.065 113.895 158.764 116.449 164.171 115.145C171.122 113.443 177.381 105.596 182.096 92.9354C186.543 76.3644 185.664 63.012 179.619 55.3516C175.197 49.7393 168.086 47.0528 158.498 47.3188C151.227 47.5316 145.208 50.0584 141.585 54.4472C138.23 58.4902 137.004 64.0227 138.043 70.4064C138.523 73.3056 138.443 76.0719 138.363 78.7317C138.336 80.0883 138.283 81.365 138.31 82.6683C138.443 87.6423 139.535 92.0842 141 95.8878C141.159 96.2336 141.319 96.5794 141.452 96.9784C141.479 97.005 141.479 97.0316 141.479 97.0316ZM159.35 26.2793C157.379 26.9177 155.222 27.4762 152.825 27.9018C134.075 31.4128 126.218 41.9459 129.414 59.2084C129.627 60.3255 129.84 61.3362 130.026 62.2406C130.852 66.1772 131.411 68.7839 129.6 71.9757C127.629 75.4335 126.884 81.4448 131.252 87.0571C133.009 89.318 134.874 90.5415 136.525 91.6054C136.925 91.8714 137.324 92.1374 137.724 92.4034C136.925 89.451 136.392 86.2325 136.285 82.7481C136.259 81.3916 136.285 80.0351 136.339 78.7051C136.419 76.1251 136.498 73.4652 136.046 70.7521C134.927 63.7833 136.285 57.7188 140.041 53.1971C144.062 48.3561 150.588 45.5633 158.471 45.3239C168.725 45.0313 176.396 48.0103 181.217 54.128C185.345 59.3679 187.262 66.7092 186.943 75.7793C191.817 51.7607 185.238 35.9612 167.367 28.8062C165.822 28.1944 163.985 27.6624 162.014 27.0772C161.135 26.8113 160.256 26.5453 159.35 26.2793ZM159.75 2.02136C159.404 2.02136 159.031 2.02136 158.658 2.04796C154.743 2.31394 151.413 3.83006 149.256 6.38353C147.525 8.43162 146.726 10.9851 147.019 13.5652C147.711 19.736 153.411 22.3161 159.324 24.1514C165.503 21.9969 170.856 18.2997 170.749 11.8628C170.696 9.12319 169.604 6.59632 167.66 4.81421C165.662 2.97891 162.946 2.02136 159.75 2.02136Z" fill="black"/>
</svg>
